<mxfile host="app.diagrams.net" modified="2024-02-06T21:40:12.927Z" agent="Mozilla/5.0 (Windows NT 10.0; Win64; x64) AppleWebKit/537.36 (KHTML, like Gecko) Chrome/120.0.0.0 Safari/537.36" etag="8W43FaJjUnP6lk825DM2" version="23.0.1" type="github">
  <diagram id="prtHgNgQTEPvFCAcTncT" name="Page-1">
    <mxGraphModel dx="1434" dy="841" grid="1" gridSize="10" guides="1" tooltips="1" connect="1" arrows="1" fold="1" page="1" pageScale="1" pageWidth="827" pageHeight="1169" background="#f2f2f2" math="0" shadow="0">
      <root>
        <mxCell id="0" />
        <mxCell id="1" parent="0" />
        <mxCell id="dNxyNK7c78bLwvsdeMH5-19" value="Document Process" style="swimlane;html=1;childLayout=stackLayout;resizeParent=1;resizeParentMax=0;horizontal=0;startSize=20;horizontalStack=0;labelBackgroundColor=none;fillColor=#F2CC8F;strokeColor=#E07A5F;fontColor=#393C56;rounded=1;" parent="1" vertex="1">
          <mxGeometry x="40" y="70" width="770" height="480" as="geometry" />
        </mxCell>
        <mxCell id="dNxyNK7c78bLwvsdeMH5-20" value="Sprint" style="swimlane;html=1;startSize=20;horizontal=0;labelBackgroundColor=none;fillColor=#F2CC8F;strokeColor=#E07A5F;fontColor=#393C56;rounded=1;" parent="dNxyNK7c78bLwvsdeMH5-19" vertex="1">
          <mxGeometry x="20" width="750" height="120" as="geometry" />
        </mxCell>
        <mxCell id="dNxyNK7c78bLwvsdeMH5-23" value="Start" style="ellipse;whiteSpace=wrap;html=1;labelBackgroundColor=none;fillColor=#F2CC8F;strokeColor=#E07A5F;fontColor=#393C56;rounded=1;" parent="dNxyNK7c78bLwvsdeMH5-20" vertex="1">
          <mxGeometry x="40" y="40" width="40" height="40" as="geometry" />
        </mxCell>
        <mxCell id="dNxyNK7c78bLwvsdeMH5-24" value="Document Created" style="rounded=1;whiteSpace=wrap;html=1;fontFamily=Helvetica;fontSize=12;fontColor=#393C56;align=center;labelBackgroundColor=none;fillColor=#F2CC8F;strokeColor=#E07A5F;" parent="dNxyNK7c78bLwvsdeMH5-20" vertex="1">
          <mxGeometry x="110" y="30" width="80" height="60" as="geometry" />
        </mxCell>
        <mxCell id="dNxyNK7c78bLwvsdeMH5-30" value="" style="rounded=1;whiteSpace=wrap;html=1;fontFamily=Helvetica;fontSize=12;fontColor=#393C56;align=center;labelBackgroundColor=none;fillColor=#F2CC8F;strokeColor=#E07A5F;" parent="dNxyNK7c78bLwvsdeMH5-20" vertex="1">
          <mxGeometry x="630" y="20" width="80" height="60" as="geometry" />
        </mxCell>
        <mxCell id="Wf8wKYNVQ9vnbfMH8e4y-1" value="Jira" style="swimlane;html=1;startSize=20;horizontal=0;labelBackgroundColor=none;fillColor=#F2CC8F;strokeColor=#E07A5F;fontColor=#393C56;rounded=1;" vertex="1" parent="dNxyNK7c78bLwvsdeMH5-19">
          <mxGeometry x="20" y="120" width="750" height="120" as="geometry" />
        </mxCell>
        <mxCell id="Wf8wKYNVQ9vnbfMH8e4y-3" value="" style="rounded=1;whiteSpace=wrap;html=1;fontFamily=Helvetica;fontSize=12;fontColor=#393C56;align=center;labelBackgroundColor=none;fillColor=#F2CC8F;strokeColor=#E07A5F;" vertex="1" parent="Wf8wKYNVQ9vnbfMH8e4y-1">
          <mxGeometry x="630" y="30" width="80" height="60" as="geometry" />
        </mxCell>
        <mxCell id="dNxyNK7c78bLwvsdeMH5-26" value="" style="rounded=1;whiteSpace=wrap;html=1;fontFamily=Helvetica;fontSize=12;fontColor=#393C56;align=center;labelBackgroundColor=none;fillColor=#F2CC8F;strokeColor=#E07A5F;" parent="Wf8wKYNVQ9vnbfMH8e4y-1" vertex="1">
          <mxGeometry x="520" y="20" width="80" height="60" as="geometry" />
        </mxCell>
        <mxCell id="Wf8wKYNVQ9vnbfMH8e4y-6" value="" style="rhombus;whiteSpace=wrap;html=1;" vertex="1" parent="Wf8wKYNVQ9vnbfMH8e4y-1">
          <mxGeometry x="110" y="20" width="80" height="80" as="geometry" />
        </mxCell>
        <mxCell id="dNxyNK7c78bLwvsdeMH5-21" value="Confluence" style="swimlane;html=1;startSize=20;horizontal=0;labelBackgroundColor=none;fillColor=#F2CC8F;strokeColor=#E07A5F;fontColor=#393C56;rounded=1;" parent="dNxyNK7c78bLwvsdeMH5-19" vertex="1">
          <mxGeometry x="20" y="240" width="750" height="120" as="geometry" />
        </mxCell>
        <mxCell id="dNxyNK7c78bLwvsdeMH5-34" value="" style="rounded=1;whiteSpace=wrap;html=1;fontFamily=Helvetica;fontSize=12;fontColor=#393C56;align=center;labelBackgroundColor=none;fillColor=#F2CC8F;strokeColor=#E07A5F;" parent="dNxyNK7c78bLwvsdeMH5-21" vertex="1">
          <mxGeometry x="640" y="30" width="80" height="60" as="geometry" />
        </mxCell>
        <mxCell id="dNxyNK7c78bLwvsdeMH5-22" value="Lane 3" style="swimlane;html=1;startSize=20;horizontal=0;labelBackgroundColor=none;fillColor=#F2CC8F;strokeColor=#E07A5F;fontColor=#393C56;rounded=1;" parent="dNxyNK7c78bLwvsdeMH5-19" vertex="1">
          <mxGeometry x="20" y="360" width="750" height="120" as="geometry" />
        </mxCell>
      </root>
    </mxGraphModel>
  </diagram>
</mxfile>
